<?xml version="1.0" standalone="no"?>
<!DOCTYPE svg PUBLIC "-//W3C//DTD SVG 20010904//EN"
 "http://www.w3.org/TR/2001/REC-SVG-20010904/DTD/svg10.dtd">
<svg version="1.0" xmlns="http://www.w3.org/2000/svg"
 width="343.000000pt" height="343.000000pt" viewBox="0 0 343.000000 343.000000"
 preserveAspectRatio="xMidYMid meet">
<metadata>
Created by potrace 1.14, written by Peter Selinger 2001-2017
</metadata>
<g transform="translate(0.000000,343.000000) scale(0.100000,-0.100000)"
fill="#000000" stroke="none">
<path d="M1700 3373 c-14 -10 -41 -32 -60 -49 -19 -18 -45 -41 -56 -51 -12
-10 -75 -68 -140 -129 -66 -61 -162 -149 -213 -195 -106 -94 -112 -99 -266
-248 -61 -58 -131 -124 -156 -146 -164 -145 -212 -189 -377 -344 -68 -64 -129
-119 -135 -123 -9 -5 -12 -168 -11 -655 l1 -648 136 -3 c106 -2 137 0 137 10
1 7 2 268 4 580 l3 567 45 45 c25 24 114 103 197 175 83 72 159 139 169 149
17 16 141 127 186 165 12 10 35 30 52 45 17 15 62 54 100 87 38 33 94 83 124
110 55 50 181 161 253 223 l38 32 57 -42 c31 -23 59 -44 62 -48 3 -3 75 -63
160 -134 170 -141 214 -177 370 -311 58 -49 129 -110 158 -133 28 -24 52 -48
52 -52 0 -5 -23 -25 -50 -45 l-51 -37 -69 67 c-38 36 -76 65 -84 63 -8 -2 -63
-43 -123 -93 -59 -49 -187 -154 -283 -234 -96 -79 -179 -149 -185 -155 -5 -6
-28 -24 -50 -41 -21 -16 -46 -36 -55 -45 -9 -8 -71 -59 -138 -113 l-122 -98 0
-359 c0 -198 0 -363 0 -367 0 -5 84 -8 187 -8 l188 0 0 270 0 270 115 5 c63 3
160 3 216 0 l100 -5 1 -265 c1 -146 2 -268 2 -273 1 -4 115 -6 254 -5 l252 3
0 688 c-1 378 1 687 3 687 2 0 49 -35 103 -77 l100 -78 -1 -595 c0 -327 -1
-603 0 -613 0 -16 11 -17 128 -15 l127 3 2 50 c1 43 2 207 2 270 0 11 0 34 1
50 6 168 -5 1404 -13 1420 -6 11 -22 29 -36 40 -14 11 -66 59 -116 106 -49 48
-93 85 -97 83 -4 -3 -6 -93 -5 -200 2 -107 1 -196 -1 -198 -2 -2 -18 10 -36
27 -45 44 -109 102 -191 172 -38 33 -72 62 -75 65 -3 3 -32 28 -65 55 -33 28
-65 55 -71 60 -12 10 -23 21 -159 140 -44 39 -107 93 -140 120 -33 27 -62 52
-65 55 -3 3 -25 21 -50 40 -25 19 -47 37 -50 41 -3 3 -31 27 -63 53 -33 26
-69 56 -80 66 -70 59 -110 90 -116 90 -3 0 -18 -8 -31 -17z m737 -1795 l-2
-203 -128 0 c-71 0 -132 2 -136 5 -3 3 -6 94 -6 203 l0 197 137 0 138 0 -3
-202z"/>
<path d="M325 590 c-45 -5 -49 -7 -50 -32 -1 -17 4 -28 14 -30 9 -2 656 -3
1438 -3 781 0 1419 -3 1417 -6 -2 -4 4 -13 14 -20 15 -13 16 -12 3 4 -9 11
-10 17 -2 17 11 0 13 69 1 71 -25 4 -2797 3 -2835 -1z"/>
<path d="M3156 423 c-3 -4 -14 -9 -24 -11 -9 -2 -651 -5 -1427 -6 -776 -1
-1415 -5 -1422 -9 -12 -7 -12 -24 -1 -43 5 -8 411 -11 1445 -10 l1438 1 1 43
c0 23 -1 42 -1 42 -1 0 -5 -3 -9 -7z"/>
<path d="M279 307 c-7 -65 -2 -267 6 -270 6 -2 656 -3 1445 -3 l1435 1 0 141
1 141 -1443 2 c-1142 1 -1443 -2 -1444 -12z"/>
</g>
</svg>
